# xmcd CD database file
#
# Track frame offsets:
#	150
#	34392
#	58156
#	83899
#	144178
#	175560
#	202748
#
# Disc length: 3026 seconds
#
# Revision: 0
# Processed by: cddbd v1.5.2PL0 Copyright (c) Steve Scherf et al.
# Submitted via: CDex 1.70beta2
#
DISCID=540bd007
DTITLE=Myra Melford - Mark Dresser - Matt Wilson - Big Picture
DYEAR=2007
DGENRE=Jazz
TTITLE0=Brainfire And Buglight
TTITLE1=For Bradford
TTITLE2=Naive Art
TTITLE3=Big Picture
TTITLE4=Modern Pine
TTITLE5=Secrets To Tell You
TTITLE6=FreeKonomics
EXTD=YEAR: 2007
EXTT0=
EXTT1=
EXTT2=
EXTT3=
EXTT4=
EXTT5=
EXTT6=
PLAYORDER=
